<?xml version="1.0" encoding="utf-8"?>
<!-- Generator: Adobe Illustrator 22.1.0, SVG Export Plug-In . SVG Version: 6.00 Build 0)  -->
<svg version="1.1" id="Layer_5" xmlns="http://www.w3.org/2000/svg" xmlns:xlink="http://www.w3.org/1999/xlink" x="0px" y="0px"
	 viewBox="0 0 369 268" style="enable-background:new 0 0 369 268;" xml:space="preserve">
<style type="text/css">
	.st0{opacity:0.75;}
	.st1{fill:#AEC7E8;}
	.st2{fill:#277095;}
	.st3{fill:#F79429;}
	.st4{fill:#D52928;}
	.st5{fill:#C4B0D5;}
	.st6{fill:#42C1C7;}
	.st7{fill:#FDD2B8;}
	.st8{fill:#3C835A;}
	.st9{fill:#D8CE25;}
	.st10{fill:#F69696;}
	.st11{fill:#FDC283;}
	.st12{fill:#D879B1;}
	.st13{fill:#9ED089;}
	.st14{fill:#C49C94;}
	.st15{fill:#9A6C58;}
	.st16{fill:#9F7289;}
	.st17{fill:#231F20;}
	.st18{font-family:'BodoniMT';}
	.st19{font-size:7px;}
</style>
<title>Artboard 2</title>
<g id="regions">
	<g class="st0">
		<polygon id="America" class="st1 regionPoly" points="349.4,43.2 319.6,43.2 318.6,43.2 318.6,42.3 323,42.3 323.2,42.3 323.2,41.6 323,41.6 
			318.9,41.6 318.9,40.1 289.8,40.1 289.8,38.5 321,38.5 322,38.5 322,37 319.8,37 319.6,37 298.2,37 298.2,35.4 319.6,35.4 
			319.8,35.4 341.4,35.4 341.4,33.9 341.2,33.9 317.8,33.9 317.8,32.3 342.9,32.3 343.1,32.3 343.1,31.6 342.9,31.6 335.6,31.6 
			335.6,30.8 335.4,30.8 328.2,30.8 327.9,30.8 327.9,30.3 328.2,30.3 331.1,30.3 331.1,29.8 331.3,29.8 336.8,29.8 336.8,29.2 
			334.9,29.2 334.7,29.2 328.2,29.2 328.2,28.5 328.9,28.5 328.9,27.7 329.9,27.7 329.9,26.3 319.6,26.3 319.6,24.8 348.2,24.8 
			349.4,24.8 349.4,35.4 349.4,41.6 349.4,42.3 		"/>
		<path id="Africa" class="st2 regionPoly" d="M349.8,54.9H16.6v-3.5h13.5v-1.7h21.9V47h93.7v-1.8h-23.7v-2.7h227.7V54.9z"/>
		<path id="China" class="st3 regionPoly" d="M349.8,68.2H151.5v-9h-9.7v-1h-4.5v-1.7H77.4v-1.5h272.4V68.2z"/>
		<polygon id="India" class="st4 regionPoly" points="151.5,68.2 184.9,68.2 212.9,68.2 267.3,68.2 267.6,68.2 286.3,68.2 286.5,68.2 
			308.7,68.2 317.9,68.2 340.3,68.2 340.3,69.9 340.3,68.2 349.8,68.2 349.8,76.7 349.8,78.4 321.8,78.4 319.8,78.4 305.5,78.4 
			303.9,78.4 289.5,78.4 289.3,78.4 279.3,78.4 279.1,78.4 273,78.4 268,78.4 267.8,78.4 265.8,78.4 259,78.4 251.3,78.4 
			246.8,78.4 246.6,78.4 205.2,78.4 184.9,78.4 151.5,78.4 		"/>
		<path id="Persia" class="st5 regionPoly" d="M349.8,88.9H22.3v-1.7h40.7v-1.7H42.6v-1.7h9.9v-1.8h-3.2v-1.7h17.4v-1.7h199.4l0,0h83.6
			L349.8,88.9L349.8,88.9z M52.8,83.7L52.8,83.7z"/>
		<polygon id="Turky in Asia" class="st6 regionPoly" points="322.5,88.9 296,88.9 291.1,88.9 290.8,88.9 274.1,88.9 271.4,88.9 260.1,88.9 
			256.7,88.9 252.9,88.9 248.8,88.9 221.9,88.9 144,88.9 113.3,88.9 113.1,88.9 88.7,88.9 88.4,88.9 86.9,88.9 86.6,88.9 83.5,88.9 
			77.4,88.9 77.2,88.9 68.3,88.9 35.4,88.9 35.1,88.9 22.5,88.9 22.3,88.9 16.6,88.9 16.6,90.6 16.6,95.4 28.4,95.4 28.6,95.4 
			46.9,95.4 47.1,95.4 55.9,95.4 56.2,95.4 58.2,95.4 58.2,98.8 58.4,98.8 82.8,98.8 83,98.8 89.6,98.8 89.8,98.8 90.7,98.8 
			90.9,98.8 113.1,98.8 113.3,98.8 125.5,98.8 125.7,98.8 143.6,98.8 145.1,98.8 145.4,98.8 163,98.8 164.1,98.8 192.1,98.8 
			192.4,98.8 200,98.8 224.2,98.8 268.5,98.8 272.3,98.8 272.5,98.8 285.9,98.8 288.1,98.8 289.3,98.8 301.7,98.8 306,98.8 
			306.2,98.8 308.9,98.8 313.9,98.8 317.9,98.8 319.5,98.8 324,98.8 325.2,98.8 349.8,98.8 349.8,95.4 349.8,88.9 		"/>
		<polygon id="Turky" class="st7 regionPoly" points="349.8,109.4 300.5,109.4 293.3,109.4 293.1,109.4 245.7,109.4 245.4,109.4 237.8,109.4 
			237.5,109.4 226.5,109.4 213.1,109.4 212.9,109.4 137.5,109.4 137.2,109.4 121.2,109.4 121,109.4 113.3,109.4 113.1,109.4 
			90.9,109.4 90.7,109.4 89.8,109.4 89.6,109.4 89.1,109.4 58.4,109.4 16.8,109.4 16.6,109.4 16.6,107.8 16.8,107.8 34.7,107.8 
			34.7,104.1 36.3,104.1 36.3,102.3 36.5,102.3 55.9,102.3 55.9,100.6 55.9,98.8 56.2,98.8 58.2,98.8 58.4,98.8 82.8,98.8 83,98.8 
			89.6,98.8 89.8,98.8 90.7,98.8 90.9,98.8 113.1,98.8 113.3,98.8 125.5,98.8 125.7,98.8 143.6,98.8 145.1,98.8 145.4,98.8 
			163,98.8 164.1,98.8 192.1,98.8 192.4,98.8 200,98.8 224.2,98.8 268.5,98.8 272.3,98.8 272.5,98.8 285.9,98.8 288.1,98.8 
			289.3,98.8 301.7,98.8 306,98.8 306.2,98.8 308.9,98.8 313.9,98.8 317.9,98.8 319.5,98.8 324,98.8 325.2,98.8 349.8,98.8 
			349.8,99.6 		"/>
		<path id="Germany" class="st8 regionPoly" d="M349.8,119.8H58.4v-10.4h234.9l0,0h56.5V119.8z M118.9,118.1L118.9,118.1z"/>
		<polygon id="Turky in Europe" class="st9 regionPoly" points="343.7,137.2 322.5,137.2 322.2,137.2 319.8,137.2 319.5,137.2 297.8,137.2 
			297.6,137.2 295.6,137.2 295.4,137.2 294.9,137.2 293.3,137.2 293.1,137.2 288.8,137.2 288.6,137.2 285.2,137.2 278.2,137.2 
			278,137.2 268.5,137.2 252.9,137.2 252.7,137.2 226,137.2 225.8,137.2 224.9,137.2 224.6,137.2 210.6,137.2 200.7,137.2 
			200.5,137.2 195.7,137.2 195.5,137.2 132.3,137.2 128.9,137.2 114.9,137.2 111.5,137.2 96.3,137.2 86.4,137.2 86.2,137.2 
			69.5,137.2 48.2,137.2 48,137.2 46.4,137.2 33.6,137.2 33.6,135.5 34.7,135.5 34.7,133.8 35.1,133.8 35.1,132 30.2,132 
			30.2,130.3 34,130.3 34.2,130.3 34.2,128.5 34,128.5 25.6,128.5 25.6,126.8 25.6,125 50.3,125 50.3,123.3 49.4,123.3 49.4,121.6 
			59.3,121.6 59.3,119.8 110.4,119.8 113.3,119.8 117.6,119.8 117.8,119.8 133.4,119.8 195.5,119.8 195.7,119.8 274.6,119.8 
			274.8,119.8 286.3,119.8 286.5,119.8 291.5,119.8 292.6,119.8 314.5,119.8 315.7,119.8 349.8,119.8 349.8,135.5 349.8,137.2 
			343.7,137.2 		"/>
		<path id="Italy" class="st10 regionPoly" d="M111,153L111,153v3.2H97.5v-1.8h-6.1v-1.7h2.7V151h-5v-1.7h-8.3v-1.8H42.6v-1.7h15.1V144h30.7
			v-1.7H77.8v-1.7H57.7v-3.3h292.1v19.2H123.2V153h-11.3"/>
		<polygon id="France" class="st11 regionPoly" points="349.8,173.9 320.6,173.9 317.5,173.9 317.3,173.9 249.5,173.9 248.4,173.9 246.8,173.9 
			246.6,173.9 231.4,173.9 231.2,173.9 231,173.9 212,173.9 211.8,173.9 198.4,173.9 198.2,173.9 197.3,173.9 195.7,173.9 
			195.5,173.9 173.8,173.9 138.6,173.9 138.4,173.9 128,173.9 127.8,173.9 104.9,173.9 104.9,168.4 111.9,168.4 112.2,168.4 
			112.2,156.4 122.1,156.4 122.3,156.4 144.7,156.4 145.1,156.4 195.5,156.4 195.7,156.4 197.8,156.4 198,156.4 206.8,156.4 
			248.4,156.4 261.7,156.4 261.9,156.4 267.3,156.4 267.6,156.4 286.3,156.4 286.5,156.4 298.3,156.4 299.4,156.4 310.5,156.4 
			310.7,156.4 324,156.4 325.6,156.4 325.9,156.4 327.4,156.4 349.8,156.4 349.8,158.2 349.8,158.9 		"/>
		<path id="Spain" class="st12 regionPoly" d="M202.3,190.1h-66.6v-1.7H121v-1.7h-1.1v-1.7H90.5v-0.5h33.8v-1.7h-21.7v-1.7H90.5v-7h259.3V190
			L202.3,190.1L202.3,190.1z M231.6,184.9L231.6,184.9z M318.6,180.9L318.6,180.9z M199.4,177.4L199.4,177.4z"/>
		<path id="Great Britain" class="st13 regionPoly" d="M349.8,208.5H204.1V207H139v-1.7h0.5v-1.7h0.7v-13.5h209.7V208.5z"/>
		<polygon id="Russia" class="st14 regionPoly" points="349.8,213.5 327.4,213.5 269.6,213.5 257.9,213.5 246.8,213.5 246.6,213.5 229.9,213.5 
			229.4,213.5 229.2,213.5 213.1,213.5 212.9,213.5 212.9,210.3 213.1,210.3 225.8,210.3 226,210.3 246.6,210.3 246.6,208.5 
			246.8,208.5 325.2,208.5 332.4,208.5 349.8,208.5 349.8,212.8 		"/>
		<path id="Poland" class="st15 regionPoly" d="M229.9,213.5h119.9v7.3H229.9V213.5z"/>
		<polygon id="Northern Crowns" class="st16 regionPoly" points="349.8,224.9 349.8,226.6 305.5,226.6 222.6,226.6 222.6,225.8 222.4,225.8 
			218.6,225.8 218.6,220.1 229.9,220.1 230.1,220.1 230.3,220.1 260.1,220.1 289.3,220.1 307.1,220.1 307.3,220.1 321.8,220.1 
			339.6,220.1 339.9,220.1 349.8,220.1 		"/>
	</g>
</g>
<g id="Labels">
	<g id="regionPoly_ClipFeb27_-_Default">
		<text transform="matrix(1 0 0 1 322.25 36.99)" class="st17 st18 st19">America</text>
		<text transform="matrix(1 0 0 1 328.53 51.28)" class="st17 st18 st19">Africa</text>
		<text transform="matrix(1 0 0 1 329.55 63.7)" class="st17 st18 st19">China</text>
		<text transform="matrix(1 0 0 1 331 75.77)" class="st17 st18 st19">India</text>
		<text transform="matrix(1 0 0 1 328.67 86.75)" class="st17 st18 st19">Persia</text>
		<text transform="matrix(1 0 0 1 306.62 96.1)" class="st17 st18 st19">Turky in Asia</text>
		<text transform="matrix(1 0 0 1 328.65 106.45)" class="st17 st18 st19">Turky</text>
		<text transform="matrix(1 0 0 1 319.68 116.78)" class="st17 st18 st19">Germany</text>
		<text transform="matrix(1 0 0 1 298.54 130.62)" class="st17 st18 st19">Turky in Europe</text>
		<text transform="matrix(1 0 0 1 332.09 148.52)" class="st17 st18 st19">Italy</text>
		<text transform="matrix(1 0 0 1 326.62 166.94)" class="st17 st18 st19">France</text>
		<text transform="matrix(1 0 0 1 330.12 184.01)" class="st17 st18 st19">Spain</text>
		<text transform="matrix(1 0 0 1 307.46 202.41)" class="st17 st18 st19">Great Britain</text>
		<text transform="matrix(1 0 0 1 327.14 212.9)" class="st17 st18 st19">Russia</text>
		<text transform="matrix(1 0 0 1 326.1 219.28)" class="st17 st18 st19">Poland</text>
		<text transform="matrix(1 0 0 1 296.65 226.1)" class="st17 st18 st19">Northern Crowns</text>
	</g>
</g>
</svg>
